<svg xmlns="http://www.w3.org/2000/svg" viewBox="0 0 362.4 362.4"><defs><style>.cls-1{fill:#933;}</style></defs><title>logo-red_1</title><g id="Layer_2" data-name="Layer 2"><g id="Layer_1-2" data-name="Layer 1"><path class="cls-1" d="M349.4,13V349.4H13V13H349.4m13-13H0V362.4H362.4V0Z"/><path class="cls-1" d="M102.17,138.26a11.51,11.51,0,0,0-3.68-5.33,9.6,9.6,0,0,0-6.13-2,10.37,10.37,0,0,0-6,1.7,10.72,10.72,0,0,0-3.83,4.92,20.07,20.07,0,0,0-1.33,7.7,23.64,23.64,0,0,0,1.2,7.77,12.1,12.1,0,0,0,3.68,5.52,9.35,9.35,0,0,0,6.17,2.05,10.09,10.09,0,0,0,6-1.78,11,11,0,0,0,3.8-5.09,21.39,21.39,0,0,0,1.3-7.83A22.79,22.79,0,0,0,102.17,138.26Z"/><path class="cls-1" d="M142.58,153.47a12.35,12.35,0,0,1-4.62,5.27,12,12,0,0,1-6.35,1.76,23.5,23.5,0,0,1-4.65-.42,8.1,8.1,0,0,1-3-1.11V135.34a15.92,15.92,0,0,1,4.21-2.79,12.66,12.66,0,0,1,5.49-1.25q5.23,0,8,3.48t2.73,10.12A19.28,19.28,0,0,1,142.58,153.47Z"/><path class="cls-1" d="M232.53,159.86a18.44,18.44,0,0,0,3.52-1.35,7.31,7.31,0,0,0,2-1.33V145.12a49.67,49.67,0,0,0-6,.43,21.86,21.86,0,0,0-5.57,1.32,10.28,10.28,0,0,0-4.28,2.75,6.1,6.1,0,0,0-1.41,4.09,6.56,6.56,0,0,0,1.86,4.93q1.86,1.81,5.74,1.81A15.41,15.41,0,0,0,232.53,159.86Z"/><path class="cls-1" d="M288.18,156.81a9.53,9.53,0,0,0,7.94,3.56,13.33,13.33,0,0,0,5.43-1.1,18.87,18.87,0,0,0,4.28-2.53V132.85a7.36,7.36,0,0,0-2.91-1.34,19.27,19.27,0,0,0-4.78-.5,11.8,11.8,0,0,0-6.46,1.81,12.38,12.38,0,0,0-4.51,5.27,19.1,19.1,0,0,0-1.69,8.2Q285.37,153.25,288.18,156.81Z"/><path class="cls-1" d="M95.91,224.78a6.91,6.91,0,0,0,5.7,2.44,15,15,0,0,0,4.08-.56,11.94,11.94,0,0,0,3.29-1.41V205.06a5.71,5.71,0,0,0-2.45-.92,23.23,23.23,0,0,0-3.58-.24,8,8,0,0,0-4.69,1.42,9.26,9.26,0,0,0-3.19,4.26,18.51,18.51,0,0,0-1.15,7Q93.93,222.34,95.91,224.78Z"/><path class="cls-1" d="M153.22,210.69a7.83,7.83,0,0,0-1.41-5.06q-1.41-1.73-4.58-1.73a6.88,6.88,0,0,0-5,1.85q-1.88,1.85-2.43,6.28h13.44Q153.22,211.57,153.22,210.69Z"/><path class="cls-1" d="M242.76,235.56h-2.14a4.87,4.87,0,0,0-1.45,3.86,7.14,7.14,0,0,0,2,5.2q2,2.06,6.39,2.07a15.4,15.4,0,0,0,7.11-1.36,4.51,4.51,0,0,0,2.57-4.27,6.66,6.66,0,0,0-.62-3.13,4.09,4.09,0,0,0-2.55-1.76,20.38,20.38,0,0,0-5.72-.6Z"/><path class="cls-1" d="M251.87,213.36q1.88-1.22,1.88-4.41a5.82,5.82,0,0,0-1.67-4.52,7.16,7.16,0,0,0-5-1.53,9,9,0,0,0-5.25,1.34q-1.91,1.34-1.91,4.58a5.36,5.36,0,0,0,1.72,4.23,7.24,7.24,0,0,0,5,1.53A9.59,9.59,0,0,0,251.87,213.36Z"/><path class="cls-1" d="M26.53,26.53V335.87H335.87V26.53Zm153.12,83.82h5.49v54.16h-5.49ZM51.08,127h4.67l.33,5.54a12.51,12.51,0,0,1,2.68-2.42,19.54,19.54,0,0,1,4.14-2.23,12.33,12.33,0,0,1,4.59-.92Q70,127,71,127v5.58a10.11,10.11,0,0,0-4.54-.77,12.44,12.44,0,0,0-5.59,1.3,16.52,16.52,0,0,0-4.34,3v28.39H51.08Zm10,108.53a10,10,0,1,1,10-10A10,10,0,0,1,61.08,235.56Zm16.23-80.42a26,26,0,0,1-1.69-9.63,21.15,21.15,0,0,1,2.2-10,15.26,15.26,0,0,1,6.07-6.36A17.53,17.53,0,0,1,92.65,127a15.8,15.8,0,0,1,9.17,2.52,14.76,14.76,0,0,1,5.38,6.78,25.32,25.32,0,0,1,1.73,9.58,21.71,21.71,0,0,1-2.17,10,15.24,15.24,0,0,1-6,6.44A17.3,17.3,0,0,1,92,164.55,15.84,15.84,0,0,1,82.67,162,14.79,14.79,0,0,1,77.31,155.15Zm42.43,80.45h-7.3a3.76,3.76,0,0,1-1.95-.4,1.75,1.75,0,0,1-.64-1.6v-2.65a17.25,17.25,0,0,1-4.6,3.29,17,17,0,0,1-14.8-.7,14.64,14.64,0,0,1-5.67-6.23,22.16,22.16,0,0,1-2.12-10.14,23.25,23.25,0,0,1,2.5-11,17.79,17.79,0,0,1,7-7.32,20.72,20.72,0,0,1,10.46-2.58,18.15,18.15,0,0,1,6.44,1.1l-.1-3.54V178.3h10.75Zm1.4-72.57a10.75,10.75,0,0,1-2.71-1.1l.34-.18-.34.15V109.37h5.49V125l-.26,6.42.26.16v.11a22.07,22.07,0,0,1,3.95-3,13.87,13.87,0,0,1,7.23-1.7,14.67,14.67,0,0,1,7.55,2,13.62,13.62,0,0,1,5.29,5.88,21.32,21.32,0,0,1,2,9.59,22.43,22.43,0,0,1-2.37,10.48,17.39,17.39,0,0,1-6.66,7.11,18.94,18.94,0,0,1-9.85,2.54,30.73,30.73,0,0,1-5.21-.45A38.41,38.41,0,0,1,121.14,163Zm41.66,55H139.58q.31,4.86,3,7.23a10.94,10.94,0,0,0,7.42,2.38,30,30,0,0,0,5.43-.6,16.35,16.35,0,0,0,4.67-1.43l1.76,6.1a17,17,0,0,1-6.1,2.79,31.3,31.3,0,0,1-8.47,1.14,20.26,20.26,0,0,1-10.09-2.35,15.1,15.1,0,0,1-6.3-6.8,24.41,24.41,0,0,1-2.14-10.66A22,22,0,0,1,131,205.72a16.57,16.57,0,0,1,6.53-6.95,19.82,19.82,0,0,1,10.21-2.52,19.37,19.37,0,0,1,7.72,1.48A12.1,12.1,0,0,1,161,202.5a16,16,0,0,1,2.15,8.45A47.51,47.51,0,0,1,162.8,218Zm2.88-53.48h-5.46V127h5.46Zm.46-47.66a3.92,3.92,0,0,1-1.5,1.5,4,4,0,0,1-2,.53,3.4,3.4,0,0,1-2.5-1,3.69,3.69,0,0,1-1-2.73,4.06,4.06,0,0,1,.57-2.14,4.35,4.35,0,0,1,1.51-1.51,3.77,3.77,0,0,1,2-.56,3.31,3.31,0,0,1,2.61,1,3.91,3.91,0,0,1,.9,2.7A4.36,4.36,0,0,1,166.14,116.85Zm29.37,115.79q-4.08,3-11.32,3a34.63,34.63,0,0,1-5.48-.44,34.24,34.24,0,0,1-4.94-1.14,14.23,14.23,0,0,1-3.29-1.41l1.1-8a11.29,11.29,0,0,0,2.45,1.26,26.79,26.79,0,0,0,4.15,1.29,20.45,20.45,0,0,0,4.67.55,11.15,11.15,0,0,0,4.68-.73A2.54,2.54,0,0,0,189,224.5q0-1.6-2-2.9a29.32,29.32,0,0,0-6.46-2.7q-5.24-1.67-7.56-4.54a10.87,10.87,0,0,1-2.33-7.07,9.25,9.25,0,0,1,2-6,12.26,12.26,0,0,1,5.6-3.75,24.64,24.64,0,0,1,8.23-1.27,28.41,28.41,0,0,1,6.72.72,17.64,17.64,0,0,1,4.34,1.52l-1.17,8.28a10,10,0,0,0-3.77-1.87,17.21,17.21,0,0,0-5-.8,13.11,13.11,0,0,0-5.08.72,2.43,2.43,0,0,0-1.57,2.35,2.89,2.89,0,0,0,.72,2,7.16,7.16,0,0,0,2.33,1.57,44.16,44.16,0,0,0,4.63,1.75A27.41,27.41,0,0,1,195,215.4a9.35,9.35,0,0,1,4.6,8.52Q199.59,229.69,195.51,232.64Zm9.17-68.13h-5.49V110.36h5.49Zm14.69,71H208.62V196.29h10.75Zm.05-48.25a6.94,6.94,0,0,1-2.51,2.38,6.76,6.76,0,0,1-3.36.88,6.6,6.6,0,0,1-3.17-.76,5.8,5.8,0,0,1-2.24-2.1,5.67,5.67,0,0,1-.83-3,5.76,5.76,0,0,1,1-3.2,7.09,7.09,0,0,1,2.55-2.36,6.79,6.79,0,0,1,3.34-.88,6.21,6.21,0,0,1,4.51,1.64,5.62,5.62,0,0,1,1.69,4.22A5.92,5.92,0,0,1,219.42,187.31Zm1.37-24a9.39,9.39,0,0,1-4-3.62,10.44,10.44,0,0,1-1.45-5.56,9.76,9.76,0,0,1,2.06-6.25,13.43,13.43,0,0,1,6-4.08,33.23,33.23,0,0,1,7.1-1.66,57.39,57.39,0,0,1,7.53-.54v-4a7.06,7.06,0,0,0-1-4.07,4.86,4.86,0,0,0-2.84-1.9,21,21,0,0,0-8.91,0,30.8,30.8,0,0,0-4.09,1.14,14.33,14.33,0,0,0-2.93,1.35l-1.35-3.37a18,18,0,0,1,3-1.45,37.58,37.58,0,0,1,5.1-1.59,23.79,23.79,0,0,1,5.66-.71,21.77,21.77,0,0,1,6.92.94,8,8,0,0,1,4.32,3.39,12.87,12.87,0,0,1,1.55,6.87v26.35h-2.24a6.58,6.58,0,0,1-1.68-.16,1.44,1.44,0,0,1-.9-.72,3.7,3.7,0,0,1-.31-1.74v-1.38a15.6,15.6,0,0,1-4.87,2.81,18.56,18.56,0,0,1-6.77,1.2A13.48,13.48,0,0,1,220.79,163.3Zm48.95,40.77h-6.51a13.23,13.23,0,0,1,.69,4.4q0,6.19-4.56,9.44t-12.9,3.25a21.39,21.39,0,0,1-3.41-.24,4,4,0,0,0-1.1,1.51,4.75,4.75,0,0,0-.38,1.88,2.44,2.44,0,0,0,1,2.33,8,8,0,0,0,3.62.58h6.55q8.68,0,11.9,3.31a11.58,11.58,0,0,1,3.22,8.41,11.07,11.07,0,0,1-2.81,7.55,17.6,17.6,0,0,1-7.46,4.86,29.53,29.53,0,0,1-10,1.67q-9.13,0-14.11-2.89a9.17,9.17,0,0,1-5-8.38,7.38,7.38,0,0,1,1.67-4.76,11.29,11.29,0,0,1,4.39-3.27,5.45,5.45,0,0,1-2.43-2.51,8,8,0,0,1-.78-3.5,8.37,8.37,0,0,1,1.45-4.63,10.23,10.23,0,0,1,4.82-3.64,14.16,14.16,0,0,1-5.91-4.34,9.87,9.87,0,0,1-2.15-6.2q0-6.52,4.62-9.6t13-3.08q7.61,0,11.88,2.56a9.57,9.57,0,0,1,2.72-1.81,8.69,8.69,0,0,1,3.62-.72h4.38Zm5.64-71.47a10.11,10.11,0,0,0-4.54-.77,12.44,12.44,0,0,0-5.59,1.3,16.52,16.52,0,0,0-4.34,3v28.39h-5.49V127h4.67l.33,5.54a12.51,12.51,0,0,1,2.68-2.42,19.54,19.54,0,0,1,4.14-2.23,12.33,12.33,0,0,1,4.59-.92q2.53,0,3.55,0Zm35.94,103H300.57V213.73a19.34,19.34,0,0,0-.52-5.07,4.26,4.26,0,0,0-1.76-2.58,6.65,6.65,0,0,0-3.51-.77,11,11,0,0,0-3.89.83,11.31,11.31,0,0,0-3.82,2.42v27H276.32V196.29h9.75l.21,4.58a27.59,27.59,0,0,1,5.92-3.18,18.22,18.22,0,0,1,6.86-1.44,14.63,14.63,0,0,1,6.92,1.44,8.85,8.85,0,0,1,4,4.77,24.7,24.7,0,0,1,1.33,8.94Zm0-71H309a4.08,4.08,0,0,1-2.12-.43q-.67-.43-.67-1.84V160a19,19,0,0,1-4.74,3.2,15.47,15.47,0,0,1-6.77,1.32,14.74,14.74,0,0,1-7.37-1.89,13.64,13.64,0,0,1-5.39-5.85,21.37,21.37,0,0,1-2-9.85,22.12,22.12,0,0,1,2.35-10.33,17.37,17.37,0,0,1,6.63-7.08,18.83,18.83,0,0,1,9.83-2.55,20.15,20.15,0,0,1,7.27,1.25l-.1-2.23V110.36h5.49Z"/></g></g></svg>